<?xml version="1.0" encoding="UTF-8" standalone="no"?>
<!-- Created with Inkscape (http://www.inkscape.org/) -->

<svg
   width="210mm"
   height="297mm"
   viewBox="0 0 210 297"
   version="1.1"
   id="svg5"
   xml:space="preserve"
   inkscape:version="1.2.2 (732a01da63, 2022-12-09)"
   sodipodi:docname="node-js.svg"
   inkscape:export-filename="node-js-rest.png"
   inkscape:export-xdpi="96"
   inkscape:export-ydpi="96"
   xmlns:inkscape="http://www.inkscape.org/namespaces/inkscape"
   xmlns:sodipodi="http://sodipodi.sourceforge.net/DTD/sodipodi-0.dtd"
   xmlns="http://www.w3.org/2000/svg"
   xmlns:svg="http://www.w3.org/2000/svg"><sodipodi:namedview
     id="namedview7"
     pagecolor="#ffffff"
     bordercolor="#666666"
     borderopacity="1.0"
     inkscape:showpageshadow="2"
     inkscape:pageopacity="0.0"
     inkscape:pagecheckerboard="0"
     inkscape:deskcolor="#d1d1d1"
     inkscape:document-units="mm"
     showgrid="false"
     inkscape:zoom="0.45191686"
     inkscape:cx="45.362326"
     inkscape:cy="444.77208"
     inkscape:window-width="1366"
     inkscape:window-height="697"
     inkscape:window-x="-8"
     inkscape:window-y="-8"
     inkscape:window-maximized="1"
     inkscape:current-layer="layer1" /><defs
     id="defs2"><inkscape:path-effect
       effect="spiro"
       id="path-effect26741"
       is_visible="true"
       lpeversion="1" /><rect
       x="298.85452"
       y="98.575051"
       width="219.05567"
       height="86.057584"
       id="rect18571" /><rect
       x="298.85452"
       y="98.575051"
       width="219.05567"
       height="86.057584"
       id="rect20811" /><rect
       x="298.85452"
       y="98.575051"
       width="219.05567"
       height="86.057584"
       id="rect22273" /><rect
       x="298.85452"
       y="98.575051"
       width="219.05567"
       height="86.057584"
       id="rect28439" /><rect
       x="298.85452"
       y="98.575051"
       width="219.05567"
       height="86.057584"
       id="rect28447" /></defs><g
     inkscape:label="Capa 1"
     inkscape:groupmode="layer"
     id="layer1"><rect
       style="fill:#333333;fill-opacity:1;stroke:none;stroke-width:7.75037;stroke-linecap:round;stroke-linejoin:round;stroke-dasharray:none;stroke-opacity:1;stop-color:#000000"
       id="rect5363"
       width="176.58124"
       height="176.58124"
       x="-4.4408921e-16"
       y="0"
       ry="0" /><path
       sodipodi:type="star"
       style="fill:none;fill-opacity:0.680597;stroke:#3ff6b8;stroke-width:3.8388;stroke-linecap:round;stroke-linejoin:round;stroke-dasharray:none;stroke-opacity:1;stop-color:#000000"
       id="path234"
       inkscape:flatsided="true"
       sodipodi:sides="6"
       sodipodi:cx="-8.0425529"
       sodipodi:cy="110.87234"
       sodipodi:r1="60.246563"
       sodipodi:r2="34.882088"
       sodipodi:arg1="-0.23933595"
       sodipodi:arg2="0.28426283"
       inkscape:rounded="-0.010058516"
       inkscape:randomized="0"
       d="m 50.486718,96.590434 c -0.143654,-0.588717 -17.334162,58.247556 -16.896144,57.828786 0.438017,-0.41877 -59.110944,14.11195 -58.529272,14.2819 0.581672,0.16995 -41.776781,-44.1356 -41.633126,-43.54688 0.143655,0.58872 17.334162,-58.247554 16.896145,-57.828787 C -50.113696,67.744221 9.4352636,53.2135 8.8535918,53.04355 8.2719201,52.8736 50.630373,97.179152 50.486718,96.590434 Z"
       inkscape:transform-center-x="-10.002002"
       inkscape:transform-center-y="14.742356"
       transform="matrix(0.44837179,-0.13006655,0.13006655,0.44837179,21.162534,-7.5679759)" /><path
       d="m 59.202507,119.36135 c -0.785557,0 -1.582843,-0.21104 -2.274606,-0.60968 l -7.234171,-4.27953 c -1.078678,-0.60969 -0.551059,-0.82074 -0.199318,-0.93799 1.442145,-0.50416 1.735262,-0.60968 3.271199,-1.48904 0.164149,-0.0938 0.375196,-0.0586 0.539344,0.0469 l 5.55753,3.29466 c 0.199328,0.11725 0.480719,0.11725 0.668313,0 l 21.655626,-12.4986 c 0.199316,-0.11725 0.328284,-0.35174 0.328284,-0.58623 V 77.304667 c 0,-0.24622 -0.128968,-0.469 -0.340012,-0.59796 L 59.530798,64.219831 c -0.199318,-0.117253 -0.468985,-0.117253 -0.668313,0 L 37.230324,76.718417 c -0.211047,0.11725 -0.340026,0.35174 -0.340026,0.59797 v 24.985453 c 0,0.23448 0.128979,0.46898 0.340026,0.5745 l 5.932721,3.42365 c 3.224305,1.60628 5.194064,-0.2814 5.194064,-2.19253 V 79.438577 c 0,-0.35174 0.281398,-0.62142 0.633138,-0.62142 h 2.743591 c 0.340016,0 0.633138,0.26968 0.633138,0.62142 v 24.680613 c 0,4.29125 -2.344949,6.75345 -6.41344,6.75345 -1.254547,0 -2.239431,0 -4.983018,-1.36008 l -5.674777,-3.2712 c -1.406975,-0.80902 -2.274611,-2.3215 -2.274611,-3.95125 V 77.304657 c 0,-1.61802 0.867636,-3.14225 2.274611,-3.95124 l 21.63216,-12.498598 c 1.371805,-0.773831 3.189135,-0.773831 4.549205,0 L 83.13273,73.365127 c 1.406966,0.80902 2.274601,2.32151 2.274601,3.95126 v 24.985453 c 0,1.61802 -0.867635,3.1305 -2.274601,3.95125 l -21.655624,12.49858 c -0.691757,0.39864 -1.477314,0.60968 -2.274599,0.60968 z M 76.684121,94.72767 c 0,-4.678183 -3.165686,-5.921013 -9.813623,-6.800373 -6.730012,-0.89109 -7.410049,-1.34835 -7.410049,-2.91946 0,-1.30145 0.574513,-3.03672 5.557538,-3.03672 4.443683,0 6.085145,0.96143 6.765182,3.96297 0.05859,0.2814 0.316567,0.49245 0.609683,0.49245 h 2.813945 c 0.175873,0 0.340016,-0.0704 0.45727,-0.19933 0.117243,-0.12897 0.175863,-0.30485 0.164138,-0.48072 -0.433816,-5.17061 -3.869168,-7.57419 -10.810218,-7.57419 -6.178946,0 -9.860522,2.60289 -9.860522,6.97623 0,4.73682 3.66985,6.04999 9.590856,6.63622 7.093473,0.69177 7.644531,1.73527 7.644531,3.130523 0,2.415278 -1.946308,3.447052 -6.507234,3.447052 -5.733402,0 -6.987958,-1.442134 -7.410044,-4.291245 -0.04687,-0.30483 -0.304846,-0.52761 -0.621413,-0.52761 h -2.802214 c -0.351752,0 -0.621418,0.2814 -0.621418,0.62141 0,3.646388 1.981488,7.996263 11.466819,7.996263 6.847245,-0.0117 10.786773,-2.720134 10.786773,-7.43347 z"
       id="path2"
       style="fill:#3ff6b8;fill-opacity:1;stroke:none;stroke-width:0.117177;stroke-dasharray:none;stroke-opacity:1" /><path
       sodipodi:type="star"
       style="fill:none;fill-opacity:0.680597;stroke:#3ff6b8;stroke-width:3.8388;stroke-linecap:round;stroke-linejoin:round;stroke-dasharray:none;stroke-opacity:1;stop-color:#000000"
       id="path11232"
       inkscape:flatsided="true"
       sodipodi:sides="6"
       sodipodi:cx="-8.0425529"
       sodipodi:cy="110.87234"
       sodipodi:r1="60.246563"
       sodipodi:r2="34.882088"
       sodipodi:arg1="-0.23933595"
       sodipodi:arg2="0.28426283"
       inkscape:rounded="-0.010058516"
       inkscape:randomized="0"
       d="m 50.486718,96.590434 c -0.143654,-0.588717 -17.334162,58.247556 -16.896144,57.828786 0.438017,-0.41877 -59.110944,14.11195 -58.529272,14.2819 0.581672,0.16995 -41.776781,-44.1356 -41.633126,-43.54688 0.143655,0.58872 17.334162,-58.247554 16.896145,-57.828787 C -50.113696,67.744221 9.4352636,53.2135 8.8535918,53.04355 8.2719201,52.8736 50.630373,97.179152 50.486718,96.590434 Z"
       inkscape:transform-center-x="-10.002002"
       inkscape:transform-center-y="14.742356"
       transform="matrix(0.44837179,-0.13006655,0.13006655,0.44837179,75.218814,-7.5679759)" /><path
       style="fill:#739fba;fill-opacity:1;stroke-width:0.025106"
       d="M 34.934852,63.262404 C 34.390877,63.204144 33.74201,63.035952 33.362453,62.854837 33.003398,62.6835 32.826588,62.556561 32.523387,62.252416 31.947586,61.674821 31.557312,60.898819 31.284575,59.789243 30.992854,58.60246 30.963889,58.200577 30.927694,54.83793 c -0.0098,-0.89409 -0.02645,-1.625619 -0.03732,-1.625619 -0.01087,0 -0.119329,0.06026 -0.240951,0.133928 -0.737593,0.446718 -1.249146,0.644941 -2.028772,0.78614 -0.356715,0.0646 -1.35171,0.06475 -1.694661,2.51e-4 -0.486907,-0.09158 -0.889768,-0.234216 -1.435281,-0.508191 -0.601505,-0.302096 -1.03052,-0.688974 -1.180881,-1.064887 -0.07925,-0.198175 -0.07915,-0.516831 2.84e-4,-0.690417 0.06475,-0.141625 0.06239,-0.139494 -0.21034,0.188296 -0.433234,0.520639 -0.870394,0.898268 -1.266507,1.094033 -0.357526,0.176694 -0.60788,0.236589 -0.988888,0.236589 -0.725359,0 -1.327857,-0.363651 -2.058983,-1.242751 -0.719459,-0.865071 -1.173612,-1.636435 -1.603804,-2.724012 -0.278583,-0.704292 -1.725455,-5.077753 -1.939633,-5.862936 -0.442414,-1.621895 -0.748753,-2.911814 -0.92699,-3.903332 -0.149055,-0.829174 -0.386316,-2.63435 -0.48177,-3.665489 -0.05497,-0.593774 -0.06215,-2.01442 -0.01226,-2.422738 0.176222,-1.442093 0.591513,-2.6445 1.338041,-3.874077 0.221905,-0.365487 0.355127,-0.533195 0.653208,-0.82229 0.709988,-0.688589 1.70708,-1.211376 3.060637,-1.604728 0.892165,-0.259269 2.200517,-0.464997 2.957206,-0.464997 1.480998,0 3.240296,0.414359 4.86291,1.145335 l 0.306786,0.138204 0.272806,-0.186942 c 0.970895,-0.665314 1.836173,-1.007322 3.097241,-1.22421 0.396768,-0.06824 1.332173,-0.09409 1.775793,-0.04908 0.603679,0.06126 1.243475,0.202039 1.995263,0.439053 l 0.430543,0.135739 0.227795,-0.09641 c 0.219812,-0.09304 0.629344,-0.240237 0.968416,-0.348094 0.437194,-0.139069 1.092839,-0.277626 1.694658,-0.358133 0.605295,-0.08097 1.670119,-0.08148 2.256303,-0.0011 0.723028,0.09918 1.397843,0.271987 2.091869,0.535705 0.423624,0.160965 1.420141,0.650592 1.681323,0.826097 1.379933,0.927245 2.671546,2.341858 3.316001,3.631758 0.655916,1.312805 0.70909,2.45102 0.220795,4.724395 -0.55266,2.573043 -1.023979,4.245675 -1.740882,6.178112 -0.657493,1.772338 -1.526534,3.65942 -1.988617,4.318247 -0.247113,0.35233 -1.003857,1.541556 -1.003857,1.57757 0,0.0285 0.269767,0.20496 0.433087,0.283301 0.118624,0.0569 0.121625,0.05704 0.563359,0.026 0.244255,-0.01716 0.78937,-0.0708 1.211363,-0.119184 1.192293,-0.136705 1.372818,-0.149559 1.625556,-0.115743 0.27068,0.03621 0.440999,0.116142 0.592375,0.277971 0.277221,0.296375 0.357896,0.691321 0.221924,1.086509 -0.121903,0.354337 -0.335897,0.66718 -0.724663,1.05942 -0.426238,0.43006 -0.64965,0.593968 -1.113723,0.81715 -1.009475,0.485472 -1.880415,0.763124 -2.617883,0.834572 -0.468975,0.04543 -1.135948,-0.02383 -1.86864,-0.19405 -0.156111,-0.03626 -0.28747,-0.06186 -0.291907,-0.05688 -0.0049,0.005 -0.04956,0.421426 -0.100219,0.925431 -0.05064,0.504004 -0.119613,1.147975 -0.153172,1.431047 -0.03359,0.28307 -0.101266,1.000476 -0.150469,1.594236 -0.160598,1.937897 -0.224093,2.401704 -0.452495,3.305028 -0.313781,1.241022 -1.02047,2.186176 -2.191163,2.930559 -1.050777,0.668139 -2.458278,1.084905 -3.343668,0.990071 z m 0.927285,-1.802383 c 0.986958,-0.194406 2.060667,-0.759592 2.491465,-1.311479 0.276763,-0.354552 0.423089,-0.680841 0.645633,-1.439657 0.114167,-0.389305 0.136589,-0.505584 0.191199,-0.99169 0.07239,-0.644159 0.203855,-2.189899 0.226238,-2.659586 0.04624,-0.970868 0.177985,-2.557852 0.277145,-3.33911 0.05045,-0.397505 0.224435,-1.487775 0.290467,-1.820192 0.165995,-0.835764 0.474672,-1.343846 0.994864,-1.63758 0.07248,-0.04093 0.131799,-0.08267 0.131799,-0.09274 0,-0.01008 -0.0525,-0.08526 -0.116635,-0.167069 -0.195138,-0.248875 -0.520585,-0.757764 -0.709618,-1.109625 -0.32484,-0.60463 -0.635006,-1.308721 -1.169333,-2.654401 -0.169972,-0.428058 -0.427927,-1.055515 -0.573235,-1.394347 -0.631184,-1.471805 -0.952684,-2.386758 -1.057487,-3.009478 -0.04799,-0.285244 -0.08943,-0.925575 -0.08924,-1.380748 2.75e-4,-0.970962 0.254401,-1.589655 0.865358,-2.10676 0.843111,-0.713595 1.741382,-1.023278 2.911126,-1.003633 0.242713,0.0041 0.441288,-0.002 0.441268,-0.01342 0,-0.04654 -0.142397,-0.374981 -0.295599,-0.682147 -0.265323,-0.531974 -1.348698,-2.158102 -1.888002,-2.833874 -0.711822,-0.891931 -1.803495,-1.792988 -2.862755,-2.362878 -0.972324,-0.52312 -2.342015,-0.986429 -3.35166,-1.133728 -0.420708,-0.06138 -1.324719,-0.06208 -1.707215,-0.0013 -1.176473,0.186839 -2.226985,0.746206 -3.232722,1.721341 -1.125198,1.090951 -1.758068,2.260701 -2.175191,4.020489 -0.126294,0.532842 -0.297431,1.379062 -0.340169,1.682109 -0.02243,0.158796 -0.04682,0.319523 -0.05427,0.357171 l -0.01351,0.06845 0.237815,-0.110375 c 0.255517,-0.118594 0.510985,-0.210366 0.975146,-0.350304 0.509456,-0.153593 0.764634,-0.195767 1.263726,-0.208856 0.394603,-0.01036 0.48534,-0.005 0.715525,0.04223 0.90834,0.186336 1.609279,0.758009 2.095921,1.70938 0.28603,0.559182 0.379587,0.878191 0.501228,1.709012 0.266184,1.818144 0.239766,3.658695 -0.07474,5.209627 -0.117732,0.580501 -0.206225,0.868603 -0.430866,1.402701 -0.573725,1.364058 -0.556377,1.316873 -0.622467,1.692794 -0.02028,0.115263 -0.04437,0.326376 -0.05368,0.469141 -0.01361,0.211115 -0.01029,0.261428 0.01822,0.269515 0.0193,0.0055 0.170609,0.03494 0.33631,0.06549 0.409101,0.07542 0.730737,0.182413 0.911739,0.303282 0.258514,0.172629 0.55093,0.586412 0.683885,0.967728 0.09737,0.27931 0.197468,0.752476 0.22276,1.053208 0.03546,0.421452 0.07415,2.371601 0.10303,5.196174 0.01361,1.325602 0.03605,2.511865 0.04996,2.63614 0.09031,0.808707 0.255977,1.450482 0.512757,1.986888 0.272247,0.568716 0.592522,0.929661 1.007608,1.135551 0.281915,0.139833 0.543309,0.179456 1.102732,0.167151 0.235661,-0.0052 0.489219,-0.02608 0.613456,-0.05055 z m -7.266574,-8.921626 c 0.706513,-0.181705 1.718274,-0.774221 2.158917,-1.26432 l 0.118056,-0.131307 -0.01724,-0.415106 c -0.0193,-0.465834 -0.0575,-0.677541 -0.158689,-0.879567 -0.07229,-0.144301 -0.114166,-0.170809 -0.332616,-0.210295 l -0.08943,-0.01617 -0.05818,0.144612 c -0.03204,0.07954 -0.120161,0.257589 -0.19595,0.395672 -0.610859,1.112923 -1.40612,1.686062 -3.000318,2.162328 -0.176054,0.05259 -0.320098,0.10352 -0.320098,0.113163 0,0.01957 0.377137,0.112138 0.597714,0.146702 0.07856,0.01231 0.35757,0.01869 0.619933,0.01417 0.379783,-0.0065 0.51795,-0.01875 0.677861,-0.05988 z m -6.527586,-0.804009 c 0.209224,-0.09537 0.496298,-0.363349 1.060021,-0.989525 0.947039,-1.05196 1.618396,-1.847404 2.227707,-2.639472 l 0.24436,-0.317656 -0.121592,-0.139137 c -0.815723,-0.933413 -1.275898,-1.806814 -1.475628,-2.800697 -0.17755,-0.883525 -0.177453,-1.32567 6.65e-4,-3.032247 l 0.09025,-0.864654 -0.05251,-0.415757 c -0.217803,-1.724417 -0.184732,-3.415079 0.100463,-5.135701 0.08257,-0.498202 0.270837,-1.453079 0.378656,-1.920617 0.38709,-1.678445 0.917675,-2.750994 1.949489,-3.940769 l 0.227843,-0.262727 -0.26871,-0.108122 C 25.60735,28.8367 24.637514,28.585636 23.731504,28.469001 c -1.749618,-0.225236 -3.954185,0.213832 -5.204364,1.036518 -0.598038,0.393541 -0.924402,0.790577 -1.315933,1.60088 -0.369972,0.765687 -0.64209,1.651671 -0.771113,2.510653 -0.05604,0.373123 -0.06369,1.694675 -0.01279,2.209291 0.203621,2.058348 0.498202,3.593162 1.325137,6.904174 0.244388,0.978522 0.433988,1.607425 1.165607,3.866339 0.711743,2.197549 0.841367,2.557272 1.126329,3.125709 0.263908,0.526434 0.505912,0.880831 0.929023,1.36048 0.235328,0.266775 0.371095,0.396293 0.580065,0.553364 0.206606,0.155294 0.335087,0.179762 0.514511,0.09798 z m 2.842325,-0.439829 c 0.174067,-0.08715 0.446599,-0.174565 0.791401,-0.253853 0.608793,-0.139987 0.721383,-0.169953 1.058731,-0.281803 0.412902,-0.136901 0.964688,-0.40545 1.199056,-0.583578 0.09208,-0.06995 0.225826,-0.194695 0.297324,-0.277225 0.13993,-0.16152 0.351307,-0.470378 0.351297,-0.513289 -10e-6,-0.01446 -0.123277,-0.05692 -0.273942,-0.09437 -0.347839,-0.08646 -0.844163,-0.264719 -1.179161,-0.423505 -0.143309,-0.06793 -0.263205,-0.123507 -0.266429,-0.123507 -0.003,0 -0.167807,0.200535 -0.365726,0.445633 -0.503931,0.62404 -1.29015,1.567273 -1.605292,1.925858 -0.306522,0.348789 -0.342727,0.39883 -0.224014,0.309672 0.04721,-0.03548 0.144778,-0.094 0.216755,-0.130033 z m 19.213375,-0.62781 c 0.487604,-0.123319 0.859515,-0.263913 1.192545,-0.450823 0.184306,-0.103445 0.373649,-0.241054 0.355978,-0.258723 -0.0063,-0.0056 -0.178518,0.0073 -0.384026,0.02893 -0.870546,0.09156 -1.42782,0.09096 -1.773548,-0.0019 -0.22791,-0.06122 -0.635717,-0.259865 -0.902912,-0.439806 l -0.232516,-0.156598 -0.248634,0.08578 c -0.334037,0.115245 -0.383427,0.148951 -0.45847,0.312866 -0.05584,0.12195 -0.158227,0.53439 -0.159119,0.64091 -2.44e-4,0.0304 0.09365,0.06176 0.407347,0.136114 0.661579,0.15679 0.915073,0.18767 1.462723,0.178191 0.416241,-0.0073 0.510616,-0.01675 0.740632,-0.07493 z M 28.852451,47.6011 c 0.02527,-0.652662 0.148001,-1.197883 0.446549,-1.983382 0.07347,-0.193316 0.184108,-0.464744 0.245849,-0.603172 0.299547,-0.671586 0.498103,-1.541451 0.571912,-2.505473 0.038,-0.495884 0.01577,-1.885432 -0.038,-2.377036 -0.09472,-0.866033 -0.254086,-1.743539 -0.369419,-2.033593 -0.198937,-0.500338 -0.5663,-0.849079 -1.018491,-0.966859 -0.169169,-0.04406 -0.465572,-0.04825 -0.71816,-0.01014 -0.27881,0.04206 -1.049438,0.24061 -1.266361,0.326278 -0.364011,0.143761 -0.767098,0.378434 -1.041941,0.606612 l -0.119251,0.09901 1.27e-4,0.430742 c 1.47e-4,0.517416 0.03194,1.076131 0.10158,1.786471 l 0.05172,0.527228 -0.09257,1.004244 c -0.170188,1.846723 -0.1452,2.429178 0.140898,3.28527 0.297345,0.889758 0.80967,1.539256 1.568217,1.988101 0.431742,0.255463 0.811192,0.418456 1.254303,0.53878 0.264155,0.07173 0.276037,0.06698 0.283003,-0.113068 z m -0.3229,-8.197587 c -0.25868,-0.04368 -0.486848,-0.210028 -0.687166,-0.500967 -0.102657,-0.149096 -0.104441,-0.305365 -0.0049,-0.435767 0.08336,-0.109279 0.148814,-0.145101 0.374895,-0.205141 0.211427,-0.05615 0.369389,-0.04179 0.709648,0.06446 0.454365,0.141899 0.661874,0.288894 0.624896,0.442648 -0.02243,0.09316 -0.103127,0.252332 -0.177485,0.350009 -0.16053,0.210864 -0.53183,0.336761 -0.839801,0.28475 z m 13.032186,5.953137 c 0.13462,-0.536702 0.156259,-0.694891 0.170355,-1.245156 0.0147,-0.572232 -0.0098,-1.066616 -0.113061,-2.284796 -0.09914,-1.169812 -0.09296,-1.619967 0.0381,-2.774223 0.129526,-1.1404 0.18732,-1.779231 0.177142,-1.958187 l -0.0078,-0.137996 -0.163184,-0.03086 c -0.08973,-0.01697 -0.304925,-0.03842 -0.47815,-0.04765 -0.67066,-0.03575 -1.242651,0.142935 -1.741107,0.54392 -0.325281,0.26168 -0.428153,0.420829 -0.508261,0.786307 -0.06044,0.275607 -0.07425,0.979353 -0.02488,1.262563 0.08963,0.513722 0.454366,1.491551 1.183291,3.172084 0.224601,0.517813 0.583901,1.353846 0.798444,1.857851 0.214551,0.504004 0.426047,0.995456 0.469999,1.092115 0.09394,0.206515 0.08571,0.216254 0.199104,-0.235963 z m -1.782121,-6.745502 c -0.103166,-0.04942 -0.196156,-0.103079 -0.206627,-0.119255 -0.246956,-0.381367 -0.268094,-0.464864 -0.150421,-0.593885 0.13421,-0.147147 0.911358,-0.294634 1.269502,-0.240928 0.169375,0.0254 0.268241,0.115891 0.268241,0.24551 0,0.224592 -0.286176,0.585792 -0.580209,0.732316 -0.196087,0.09771 -0.360427,0.09122 -0.600486,-0.02375 z m 3.537971,6.587108 c 0.609812,-1.114033 1.040658,-2.105969 1.624027,-3.738988 0.440936,-1.234316 0.71227,-2.118505 1.166146,-3.80018 0.278915,-1.033436 0.321703,-1.206921 0.436464,-1.76998 0.217982,-1.069432 0.294624,-1.909115 0.24576,-2.692725 -0.01658,-0.265758 -0.04212,-0.55663 -0.05681,-0.646385 -0.123741,-0.757665 -0.762263,-1.696837 -1.727373,-2.540699 -0.600134,-0.524743 -1.028445,-0.81616 -1.604905,-1.091964 -1.107067,-0.52968 -1.842145,-0.772626 -2.767001,-0.91451 -0.439496,-0.06742 -1.396588,-0.08141 -1.832745,-0.02678 -0.272756,0.03417 -0.991572,0.168028 -1.082102,0.201517 -0.0435,0.01608 -0.01116,0.04486 0.208997,0.186047 0.381928,0.244915 0.829427,0.580944 1.312465,0.985548 0.723273,0.605835 1.173241,1.079802 1.715894,1.807449 0.24575,0.329518 1.367794,2.003015 1.56547,2.334865 0.383309,0.643448 0.768652,1.745269 0.884972,2.530422 0.06703,0.452056 0.05314,0.772664 -0.109752,2.538449 -0.107557,1.166138 -0.152531,1.766347 -0.15237,2.033594 2.42e-4,0.42945 0.05717,1.316108 0.112217,1.747433 0.06398,0.501031 0.0956,1.124844 0.08029,1.581684 -0.02025,0.605571 -0.08513,1.016521 -0.259784,1.644449 -0.02814,0.100953 0.03979,-0.0035 0.240043,-0.369251 z"
       id="path12698" /><text
       xml:space="preserve"
       transform="matrix(0.23708894,0,0,0.23708894,-2.4470581,16.135162)"
       id="text18569"
       style="font-size:40px;line-height:0.661458em;font-family:'Vanilla Extract';-inkscape-font-specification:'Vanilla Extract';white-space:pre;shape-inside:url(#rect18571);display:inline;fill:#f2f2f2"><tspan
         x="298.85547"
         y="124.25968"
         id="tspan447"><tspan
           style="font-family:Zekton;-inkscape-font-specification:Zekton"
           id="tspan445">Express</tspan></tspan></text><path
       sodipodi:type="star"
       style="fill:none;fill-opacity:0.680597;stroke:#7abba5;stroke-width:3.8388;stroke-linecap:round;stroke-linejoin:round;stroke-dasharray:none;stroke-opacity:1;stop-color:#000000"
       id="path20805"
       inkscape:flatsided="true"
       sodipodi:sides="6"
       sodipodi:cx="-8.0425529"
       sodipodi:cy="110.87234"
       sodipodi:r1="60.246563"
       sodipodi:r2="34.882088"
       sodipodi:arg1="-0.23933595"
       sodipodi:arg2="0.28426283"
       inkscape:rounded="-0.010058516"
       inkscape:randomized="0"
       d="m 50.486718,96.590434 c -0.143654,-0.588717 -17.334162,58.247556 -16.896144,57.828786 0.438017,-0.41877 -59.110944,14.11195 -58.529272,14.2819 0.581672,0.16995 -41.776781,-44.1356 -41.633126,-43.54688 0.143655,0.58872 17.334162,-58.247554 16.896145,-57.828787 C -50.113696,67.744221 9.4352636,53.2135 8.8535918,53.04355 8.2719201,52.8736 50.630373,97.179152 50.486718,96.590434 Z"
       inkscape:transform-center-x="-10.002006"
       inkscape:transform-center-y="14.742357"
       transform="matrix(0.44837179,-0.13006655,0.13006655,0.44837179,102.24697,39.375634)" /><text
       xml:space="preserve"
       transform="matrix(0.32596735,0,0,0.32596735,-19.726107,50.00434)"
       id="text20809"
       style="font-size:40px;line-height:0.661458em;font-family:'Vanilla Extract';-inkscape-font-specification:'Vanilla Extract';white-space:pre;shape-inside:url(#rect20811);display:inline;fill:#f2f2f2"
       x="53.125"
       y="0"><tspan
         x="351.87891"
         y="124.25968"
         id="tspan451"><tspan
           style="font-family:'Square721 Cn BT';-inkscape-font-specification:'Square721 Cn BT';text-align:center;text-anchor:middle"
           id="tspan449">{REST}</tspan></tspan></text><text
       xml:space="preserve"
       transform="matrix(0.32596735,0,0,0.32596735,-19.726107,64.229678)"
       id="text22271"
       style="font-size:27.154px;line-height:0.661458em;font-family:'Vanilla Extract';-inkscape-font-specification:'Vanilla Extract';white-space:pre;shape-inside:url(#rect22273);display:inline;fill:#f2f2f2"
       x="53.125"
       y="0"><tspan
         x="392.44575"
         y="116.01079"
         id="tspan455"><tspan
           style="font-family:'Square721 Cn BT';-inkscape-font-specification:'Square721 Cn BT';text-align:center;text-anchor:middle"
           id="tspan453">API</tspan></tspan></text><path
       style="fill:#3ff6b8;fill-opacity:1;stroke:none;stroke-width:3.58434;stroke-linecap:round;stroke-linejoin:round;stroke-dasharray:none;stroke-opacity:1;stop-color:#000000"
       id="path22327"
       sodipodi:type="arc"
       sodipodi:cx="150.88297"
       sodipodi:cy="90.083839"
       sodipodi:rx="3.4100921"
       sodipodi:ry="3.4100921"
       sodipodi:start="3.1542812"
       sodipodi:end="3.0886568"
       sodipodi:open="true"
       sodipodi:arc-type="arc"
       d="m 147.47315,90.040571 a 3.4100921,3.4100921 0 0 1 3.39714,-3.3668 3.4100921,3.4100921 0 0 1 3.42208,3.34145 3.4100921,3.4100921 0 0 1 -3.28486,3.476436 3.4100921,3.4100921 0 0 1 -3.52986,-3.227386" /><path
       style="fill:none;stroke:#f2f2f2;stroke-width:1.25911;stroke-linecap:butt;stroke-linejoin:miter;stroke-dasharray:1.25911, 1.25911;stroke-dashoffset:0;stroke-opacity:1"
       d="m 139.34116,90.114317 h 8.05632"
       id="path26739"
       inkscape:path-effect="#path-effect26741"
       inkscape:original-d="m 139.34116,90.114317 c 2.64713,2.3e-4 5.37094,2.3e-4 8.05632,0" /><path
       style="fill:#f7f7f7;fill-opacity:1;stroke-width:0.0519739"
       d="m 143.11677,63.451734 0.001,-2.611689 2.16192,-1.247375 c 1.18907,-0.686054 2.27588,-1.313622 2.41512,-1.394591 l 0.2532,-0.147219 v 4.006282 4.006284 h -2.41678 -2.4168 z m 21.77542,-1.391354 v -4.003043 l 0.24913,0.14398 c 0.13704,0.07919 1.22372,0.705299 2.41485,1.391353 l 2.16571,1.247375 0.001,2.611689 0.001,2.611692 h -2.4168 -2.41678 z m -16.05995,-1.391973 v -5.343044 l 3.75271,-3.113851 c 2.064,-1.712629 3.78995,-3.113858 3.83548,-3.113858 0.0456,0 1.77147,1.401229 3.83547,3.113858 l 3.75272,3.113851 v 5.343044 5.343044 h -2.49475 -2.49474 v -2.429946 c 0,-2.232545 -0.008,-2.458034 -0.0989,-2.775682 -0.1342,-0.469233 -0.32976,-0.790523 -0.70679,-1.161178 -0.36781,-0.361585 -0.75585,-0.570599 -1.25616,-0.676604 -0.44513,-0.09433 -0.62863,-0.09433 -1.07378,0 -0.5003,0.106012 -0.88834,0.315019 -1.25616,0.676604 -0.37701,0.370655 -0.57258,0.691945 -0.70676,1.161178 -0.0908,0.317648 -0.0989,0.543137 -0.0989,2.775682 v 2.429946 h -2.49475 -2.49475 z m -2.68273,-5.647047 c -0.33864,-0.41264 -0.62215,-0.769611 -0.63003,-0.793269 -0.008,-0.02365 2.30043,-1.94863 5.12958,-4.277729 l 5.14393,-4.234731 0.001,-0.974512 0.001,-0.974509 h -0.90956 -0.90954 v -0.597697 -0.597702 h 0.908 0.90799 l 0.0146,-0.662667 0.0146,-0.662668 h 0.59769 0.59771 l 0.0146,0.662668 0.0146,0.662667 h 0.90799 0.908 v 0.597702 0.597697 h -0.90955 -0.90954 l 0.001,0.974509 0.001,0.974512 5.14354,4.234409 c 2.82894,2.328925 5.14354,4.246867 5.14354,4.262084 0,0.04954 -1.22947,1.522419 -1.26788,1.518952 -0.0205,-0.0018 -2.18894,-1.77662 -4.81871,-3.943934 -2.62976,-2.167322 -4.80228,-3.940581 -4.82782,-3.940581 -0.035,0 -7.4501,6.082882 -9.36039,7.678665 l -0.29495,0.24639 z"
       id="path28323" /><path
       style="fill:#3ff6b8;fill-opacity:1;stroke-width:0.0589531"
       d="m 156.1454,36.847915 c -0.12958,-0.07931 -1.11282,-1.809775 -4.29574,-7.560426 -2.27021,-4.101661 -4.26721,-7.749383 -4.43779,-8.106049 -1.8498,-3.868185 -1.07667,-8.418072 1.94364,-11.4383855 1.55934,-1.559331 3.4504,-2.51604 5.66099,-2.86397 0.6076,-0.09563 2.2811,-0.09563 2.8887,0 2.2106,0.34793 4.10165,1.304639 5.66098,2.86397 3.01866,3.0186555 3.7952,7.5859825 1.94477,11.4383855 -0.17131,0.356666 -2.16888,4.004388 -4.43902,8.106049 -4.29497,7.760093 -4.23671,7.663282 -4.61108,7.663282 -0.0811,0 -0.223,-0.04628 -0.31545,-0.102851 z m 4.31466,-9.053367 c 2.1751,-3.933841 4.03359,-7.349435 4.12998,-7.59021 0.98707,-2.465651 0.85732,-5.232956 -0.35037,-7.472948 -1.35179,-2.507298 -3.74177,-4.2000425 -6.51133,-4.6117555 -0.60591,-0.09007 -1.92906,-0.09007 -2.53498,0 -2.0412,0.30344 -3.95444,1.343722 -5.31653,2.8907545 -1.44785,1.644443 -2.19972,3.630074 -2.19941,5.808522 1.9e-4,1.204457 0.20477,2.262655 0.65482,3.386877 0.19237,0.480543 8.05575,14.741199 8.12835,14.741199 0.0246,0 1.82437,-3.218598 3.99947,-7.152439 z m -5.00141,-6.050318 c -1.60565,-0.342451 -2.8789,-1.360031 -3.56682,-2.850617 -0.34734,-0.752605 -0.41185,-1.08538 -0.40792,-2.104179 0.004,-0.863006 0.0139,-0.944886 0.18966,-1.473827 0.76176,-2.291917 2.9251,-3.707941 5.30312,-3.47117 1.97402,0.196545 3.63047,1.542653 4.27143,3.47117 0.17582,0.528941 0.18635,0.610821 0.18968,1.473827 0.004,1.018799 -0.0606,1.351574 -0.40793,2.104179 -0.99167,2.148753 -3.30713,3.333498 -5.57122,2.850617 z m 1.97021,-1.278091 c 1.60154,-0.408357 2.80854,-1.97067 2.80396,-3.629389 -0.005,-1.708239 -1.24422,-3.283384 -2.88768,-3.669572 -0.21075,-0.04952 -0.60868,-0.09004 -0.88429,-0.09004 -1.05288,0 -1.87368,0.339463 -2.62974,1.087585 -0.37906,0.375102 -0.52867,0.57658 -0.72322,0.974029 -0.54219,1.107586 -0.55283,2.259457 -0.0308,3.332725 0.78917,1.622509 2.58432,2.445328 4.35176,1.994667 z"
       id="path28321" /><path
       sodipodi:type="star"
       style="fill:none;fill-opacity:0.680597;stroke:#3ff6b8;stroke-width:3.8388;stroke-linecap:round;stroke-linejoin:round;stroke-dasharray:none;stroke-opacity:1;stop-color:#000000"
       id="path28441"
       inkscape:flatsided="true"
       sodipodi:sides="6"
       sodipodi:cx="-8.0425529"
       sodipodi:cy="110.87234"
       sodipodi:r1="60.246563"
       sodipodi:r2="34.882088"
       sodipodi:arg1="-0.23933595"
       sodipodi:arg2="0.28426283"
       inkscape:rounded="-0.010058516"
       inkscape:randomized="0"
       d="m 50.486718,96.590434 c -0.143654,-0.588717 -17.334162,58.247556 -16.896144,57.828786 0.438017,-0.41877 -59.110944,14.11195 -58.529272,14.2819 0.581672,0.16995 -41.776781,-44.1356 -41.633126,-43.54688 0.143655,0.58872 17.334162,-58.247554 16.896145,-57.828787 C -50.113696,67.744221 9.4352636,53.2135 8.8535918,53.04355 8.2719201,52.8736 50.630373,97.179152 50.486718,96.590434 Z"
       inkscape:transform-center-x="-10.002002"
       inkscape:transform-center-y="14.742359"
       transform="matrix(0.44837179,-0.13006655,0.13006655,0.44837179,75.218814,85.845067)" /><text
       xml:space="preserve"
       transform="matrix(0.69444847,0,0,0.69444847,-133.28233,64.375113)"
       id="text28445"
       style="font-size:40px;line-height:0.661458em;font-family:'Vanilla Extract';-inkscape-font-specification:'Vanilla Extract';white-space:pre;shape-inside:url(#rect28447);display:inline;fill:#f2f2f2"><tspan
         x="298.85547"
         y="124.25968"
         id="tspan459"><tspan
           style="font-family:Zekton;-inkscape-font-specification:Zekton"
           id="tspan457">TS</tspan></tspan></text></g></svg>
